<?xml version="1.0" encoding="UTF-8" standalone="no"?>
<!-- Created with Inkscape (http://www.inkscape.org/) -->

<svg
   xmlns:dc="http://purl.org/dc/elements/1.1/"
   xmlns:cc="http://creativecommons.org/ns#"
   xmlns:rdf="http://www.w3.org/1999/02/22-rdf-syntax-ns#"
   xmlns:svg="http://www.w3.org/2000/svg"
   xmlns="http://www.w3.org/2000/svg"
   xmlns:sodipodi="http://sodipodi.sourceforge.net/DTD/sodipodi-0.dtd"
   xmlns:inkscape="http://www.inkscape.org/namespaces/inkscape"
   width="50.125"
   height="70.5625"
   id="svg2"
   version="1.1"
   inkscape:version="0.48.4 r9939"
   sodipodi:docname="SpaceShip_v2small.svg">
  <defs
     id="defs4">
    <filter
       id="filter4058"
       inkscape:label="ImageFilter"
       color-interpolation-filters="sRGB">
      <feDisplacementMap
         id="feDisplacementMap4072"
         in="StrokePaint"
         result="result1"
         in2="BackgroundImage"
         scale="0"
         xChannelSelector="A"
         yChannelSelector="A" />
      <feTurbulence
         id="feTurbulence4076" />
    </filter>
  </defs>
  <sodipodi:namedview
     id="base"
     pagecolor="#ffffff"
     bordercolor="#666666"
     borderopacity="1.0"
     inkscape:pageopacity="0"
     inkscape:pageshadow="2"
     inkscape:zoom="1.0181848"
     inkscape:cx="-95.073653"
     inkscape:cy="77.819134"
     inkscape:document-units="px"
     inkscape:current-layer="layer1"
     showgrid="true"
     guidetolerance="20"
     showguides="true"
     inkscape:guide-bbox="true"
     inkscape:window-width="1440"
     inkscape:window-height="838"
     inkscape:window-x="-8"
     inkscape:window-y="-8"
     inkscape:window-maximized="1"
     fit-margin-top="0"
     fit-margin-left="0"
     fit-margin-right="0"
     fit-margin-bottom="0">
    <inkscape:grid
       type="xygrid"
       id="grid2985"
       empspacing="5"
       visible="true"
       enabled="true"
       snapvisiblegridlinesonly="false"
       originx="-99.437498px"
       originy="-140.20597px" />
    <sodipodi:guide
       orientation="1,0"
       position="25.062502,15.294055"
       id="guide2987" />
  </sodipodi:namedview>
  <metadata
     id="metadata7">
    <rdf:RDF>
      <cc:Work
         rdf:about="">
        <dc:format>image/svg+xml</dc:format>
        <dc:type
           rdf:resource="http://purl.org/dc/dcmitype/StillImage" />
        <dc:title />
      </cc:Work>
    </rdf:RDF>
  </metadata>
  <g
     inkscape:label="Layer 1"
     inkscape:groupmode="layer"
     id="layer1"
     transform="translate(-224.9375,-812.09375)">
    <path
       style="fill:#2a7fff;stroke:#000000;stroke-width:0.20080322px;stroke-linecap:butt;stroke-linejoin:miter;stroke-opacity:1"
       d="m 250,815.23367 -3.01205,-1.00401 -0.60241,8.03213 2.61044,4.01606 L 250,825.67544 z"
       id="path2997"
       inkscape:connector-curvature="0" />
    <path
       style="fill:#162d50;stroke:#000000;stroke-width:0.20080322px;stroke-linecap:butt;stroke-linejoin:miter;stroke-opacity:1"
       d="m 248.99598,826.27785 -1.00401,7.02811 2.00803,-0.60241 0,-7.02811 z"
       id="path2999"
       inkscape:connector-curvature="0" />
    <path
       style="fill:#e9ddaf;stroke:#000000;stroke-width:0.20080322px;stroke-linecap:butt;stroke-linejoin:miter;stroke-opacity:1"
       d="m 247.99197,833.30596 -1.00402,7.02812 -1.00401,1.60642 -1.00402,7.02811 1.00402,0.80322 0,-0.80322 2.40963,-3.61445 1.60643,-0.60241 0,-12.0482 z"
       id="path3001"
       inkscape:connector-curvature="0" />
    <path
       style="fill:#decd87;stroke:#000000;stroke-width:0.20080322px;stroke-linecap:butt;stroke-linejoin:miter;stroke-opacity:1"
       d="m 250,844.75175 -1.60643,0.60241 -2.40963,3.61445 0,0.80322 1.00401,5.62249 2.00803,2.00803 1.00402,0.40161 z"
       id="path3003"
       inkscape:connector-curvature="0" />
    <path
       style="fill:#2a7fff;stroke:#000000;stroke-width:0.20080322px;stroke-linecap:butt;stroke-linejoin:miter;stroke-opacity:1"
       d="m 250,857.80396 0,12.6506 -6.0241,-2.00803 1.00402,-16.06426 -2.00803,-8.03213 3.41365,-22.08835 2.61044,4.01606 -2.00803,14.05623 -1.00401,1.60642 -1.00402,7.02811 1.00402,0.80322 1.00401,5.62249 2.00803,2.00803 z"
       id="path3007"
       inkscape:connector-curvature="0" />
    <path
       style="fill:#162d50;stroke:#000000;stroke-width:0.20080322px;stroke-linecap:butt;stroke-linejoin:miter;stroke-opacity:1"
       d="m 242.97189,844.35014 -5.22089,6.0241 3.21286,17.06827 3.01204,1.00402 1.00402,-16.06426 z"
       id="path3009"
       inkscape:connector-curvature="0"
       sodipodi:nodetypes="cccccc" />
    <path
       style="fill:#002255;stroke:#000000;stroke-width:0.20080322px;stroke-linecap:butt;stroke-linejoin:miter;stroke-opacity:1"
       d="m 250,869.45054 -1.00402,0 0,0.60242 0,4.41767 0.40161,7.83132 0.60241,0.2008 z"
       id="path3013"
       inkscape:connector-curvature="0"
       sodipodi:nodetypes="ccccccc" />
    <path
       style="fill:#53676c;stroke:#000000;stroke-width:0.20080322px;stroke-linecap:butt;stroke-linejoin:miter;stroke-opacity:1"
       d="m 246.98795,814.22966 -0.2008,-1.60643 -0.40161,-0.4016 -11.44578,5.02008 -5.02008,24.29718 14.85944,-9.23694 1.60642,-10.04016 z"
       id="path3015"
       inkscape:connector-curvature="0"
       sodipodi:nodetypes="cccccccc" />
    <path
       style="fill:#53676c;stroke:#000000;stroke-width:0.20080322px;stroke-linecap:butt;stroke-linejoin:miter;stroke-opacity:1"
       d="m 237.751,850.37424 -12.6506,9.03614 3.81526,-16.86747 1.00402,-1.00402 14.85944,-9.23694 -1.80723,12.04819 z"
       id="path3017"
       inkscape:connector-curvature="0"
       sodipodi:nodetypes="ccccccc" />
    <path
       style="fill:#6f8a91;stroke:#000000;stroke-width:0.20080322px;stroke-linecap:butt;stroke-linejoin:miter;stroke-opacity:1"
       d="m 225.1004,859.41038 3.81526,12.0482 10.04016,4.81927 2.00804,-4.81927 0,-4.01607 -3.21286,-17.06827 z"
       id="path3021"
       inkscape:connector-curvature="0"
       sodipodi:nodetypes="ccccccc" />
    <path
       style="fill:#1c1f24;stroke:#000000;stroke-width:0.20080322px;stroke-linecap:butt;stroke-linejoin:miter;stroke-opacity:1"
       d="m 240.96386,867.44251 0,4.01607 8.03212,3.01205 0,-4.41767 z"
       id="path3028"
       inkscape:connector-curvature="0" />
    <path
       style="fill:none;stroke:#000000;stroke-width:0.20080322px;stroke-linecap:butt;stroke-linejoin:miter;stroke-opacity:1"
       d="m 242.97189,868.04492 0,4.21687"
       id="path3030"
       inkscape:connector-curvature="0" />
    <path
       style="fill:none;stroke:#000000;stroke-width:0.20080322px;stroke-linecap:butt;stroke-linejoin:miter;stroke-opacity:1"
       d="m 244.97992,868.84813 0,4.21687"
       id="path3034"
       inkscape:connector-curvature="0" />
    <path
       style="fill:none;stroke:#000000;stroke-width:0.20080322px;stroke-linecap:butt;stroke-linejoin:miter;stroke-opacity:1"
       d="m 246.98795,869.45054 0,4.21687"
       id="path3036"
       inkscape:connector-curvature="0" />
    <path
       style="fill:none;stroke:#000000;stroke-width:0.20080322px;stroke-linecap:butt;stroke-linejoin:miter;stroke-opacity:1"
       d="m 246.98795,855.39432 -1.00401,2.00803 2.00803,7.02811 1.00401,5.02008"
       id="path3128"
       inkscape:connector-curvature="0"
       sodipodi:nodetypes="cccc" />
    <path
       style="fill:#2a7fff;stroke:#000000;stroke-width:0.20080322px;stroke-linecap:butt;stroke-linejoin:miter;stroke-opacity:1"
       d="m 250,815.23367 3.01205,-1.00401 0.60241,8.03213 -2.61044,4.01606 L 250,825.67544 z"
       id="path2997-8"
       inkscape:connector-curvature="0" />
    <path
       style="fill:#162d50;stroke:#000000;stroke-width:0.20080322px;stroke-linecap:butt;stroke-linejoin:miter;stroke-opacity:1"
       d="m 251.00402,826.27785 1.00401,7.02811 -2.00803,-0.60241 0,-7.02811 z"
       id="path2999-5"
       inkscape:connector-curvature="0" />
    <path
       style="fill:#e9ddaf;stroke:#000000;stroke-width:0.20080322px;stroke-linecap:butt;stroke-linejoin:miter;stroke-opacity:1"
       d="m 252.00803,833.30596 1.00402,7.02812 1.00401,1.60642 1.00402,7.02811 -1.00402,0.80322 0,-0.80322 -2.40963,-3.61445 -1.60643,-0.60241 0,-12.0482 z"
       id="path3001-7"
       inkscape:connector-curvature="0" />
    <path
       style="fill:#decd87;stroke:#000000;stroke-width:0.20080322px;stroke-linecap:butt;stroke-linejoin:miter;stroke-opacity:1"
       d="m 250,844.75175 1.60643,0.60241 2.40963,3.61445 0,0.80322 -1.00401,5.62249 -2.00803,2.00803 L 250,857.80396 z"
       id="path3003-6"
       inkscape:connector-curvature="0" />
    <path
       style="fill:#2a7fff;stroke:#000000;stroke-width:0.20080322px;stroke-linecap:butt;stroke-linejoin:miter;stroke-opacity:1"
       d="m 250,857.80396 0,12.6506 6.0241,-2.00803 -1.00402,-16.06426 2.00803,-8.03213 -3.41365,-22.08835 -2.61044,4.01606 2.00803,14.05623 1.00401,1.60642 1.00402,7.02811 -1.00402,0.80322 -1.00401,5.62249 -2.00803,2.00803 z"
       id="path3007-1"
       inkscape:connector-curvature="0" />
    <path
       style="fill:#162d50;stroke:#000000;stroke-width:0.20080322px;stroke-linecap:butt;stroke-linejoin:miter;stroke-opacity:1"
       d="m 257.02811,844.35014 5.22089,6.0241 -3.21286,17.06827 -3.01204,1.00402 -1.00402,-16.06426 z"
       id="path3009-8"
       inkscape:connector-curvature="0"
       sodipodi:nodetypes="cccccc" />
    <path
       style="fill:#002255;stroke:#000000;stroke-width:0.20080322px;stroke-linecap:butt;stroke-linejoin:miter;stroke-opacity:1"
       d="m 250,869.45054 1.00402,0 0,0.60242 0,4.41767 -0.40161,7.83132 -0.60241,0.2008 z"
       id="path3013-9"
       inkscape:connector-curvature="0"
       sodipodi:nodetypes="ccccccc" />
    <path
       style="fill:#53676c;stroke:#000000;stroke-width:0.20080322px;stroke-linecap:butt;stroke-linejoin:miter;stroke-opacity:1"
       d="m 253.01205,814.22966 0.2008,-1.60643 0.40161,-0.4016 11.44578,5.02008 5.02008,24.29718 -14.85944,-9.23694 -1.60642,-10.04016 z"
       id="path3015-2"
       inkscape:connector-curvature="0"
       sodipodi:nodetypes="ccccc" />
    <path
       style="fill:#53676c;stroke:#000000;stroke-width:0.20080322px;stroke-linecap:butt;stroke-linejoin:miter;stroke-opacity:1"
       d="m 262.249,850.37424 12.6506,9.03614 -3.81526,-16.86747 -1.00402,-1.00402 -14.85944,-9.23694 1.80723,12.04819 z"
       id="path3017-7"
       inkscape:connector-curvature="0"
       sodipodi:nodetypes="ccccccc" />
    <path
       style="fill:#6f8a91;stroke:#000000;stroke-width:0.20080322px;stroke-linecap:butt;stroke-linejoin:miter;stroke-opacity:1"
       d="m 274.8996,859.41038 -3.81526,12.0482 -10.04016,4.81927 -2.00804,-4.81927 0,-4.01607 3.21286,-17.06827 z"
       id="path3021-9"
       inkscape:connector-curvature="0"
       sodipodi:nodetypes="ccccccc" />
    <path
       style="fill:#1c1f24;stroke:#000000;stroke-width:0.20080322px;stroke-linecap:butt;stroke-linejoin:miter;stroke-opacity:1"
       d="m 259.03614,867.44251 0,4.01607 -8.03212,3.01205 0,-4.41767 z"
       id="path3028-5"
       inkscape:connector-curvature="0" />
    <path
       style="fill:none;stroke:#000000;stroke-width:0.20080322px;stroke-linecap:butt;stroke-linejoin:miter;stroke-opacity:1"
       d="m 257.02811,868.04492 0,4.21687"
       id="path3030-4"
       inkscape:connector-curvature="0" />
    <path
       style="fill:none;stroke:#000000;stroke-width:0.20080322px;stroke-linecap:butt;stroke-linejoin:miter;stroke-opacity:1"
       d="m 255.02008,868.84813 0,4.21687"
       id="path3034-3"
       inkscape:connector-curvature="0" />
    <path
       style="fill:none;stroke:#000000;stroke-width:0.20080322px;stroke-linecap:butt;stroke-linejoin:miter;stroke-opacity:1"
       d="m 253.01205,869.45054 0,4.21687"
       id="path3036-1"
       inkscape:connector-curvature="0" />
    <path
       style="fill:none;stroke:#000000;stroke-width:0.20080322px;stroke-linecap:butt;stroke-linejoin:miter;stroke-opacity:1"
       d="m 253.01205,855.39432 1.00401,2.00803 -2.00803,7.02811 -1.00401,5.02008"
       id="path3128-2"
       inkscape:connector-curvature="0"
       sodipodi:nodetypes="cccc" />
  </g>
</svg>
