<?xml version="1.0" encoding="UTF-8" standalone="no"?>
<!-- Created with Inkscape (http://www.inkscape.org/) -->

<svg
   xmlns:dc="http://purl.org/dc/elements/1.1/"
   xmlns:cc="http://creativecommons.org/ns#"
   xmlns:rdf="http://www.w3.org/1999/02/22-rdf-syntax-ns#"
   xmlns:svg="http://www.w3.org/2000/svg"
   xmlns="http://www.w3.org/2000/svg"
   xmlns:sodipodi="http://sodipodi.sourceforge.net/DTD/sodipodi-0.dtd"
   xmlns:inkscape="http://www.inkscape.org/namespaces/inkscape"
   width="744.09448819"
   height="1052.3622047"
   id="svg2"
   version="1.1"
   inkscape:version="0.48.4 r9939"
   sodipodi:docname="New document 1">
  <defs
     id="defs4" />
  <sodipodi:namedview
     id="base"
     pagecolor="#ffffff"
     bordercolor="#666666"
     borderopacity="1.0"
     inkscape:pageopacity="0.0"
     inkscape:pageshadow="2"
     inkscape:zoom="4"
     inkscape:cx="423.05132"
     inkscape:cy="348.02482"
     inkscape:document-units="px"
     inkscape:current-layer="g3127"
     showgrid="true"
     showguides="true"
     inkscape:guide-bbox="true"
     inkscape:snap-global="true"
     inkscape:window-width="1440"
     inkscape:window-height="838"
     inkscape:window-x="-8"
     inkscape:window-y="-8"
     inkscape:window-maximized="1">
    <sodipodi:guide
       orientation="1,0"
       position="0,-58.588848"
       id="guide2985" />
    <sodipodi:guide
       orientation="0,1"
       position="155.56349,0"
       id="guide2987" />
    <inkscape:grid
       type="xygrid"
       id="grid2989" />
    <sodipodi:guide
       orientation="1,0"
       position="100.0051,321.22851"
       id="guide2991" />
  </sodipodi:namedview>
  <metadata
     id="metadata7">
    <rdf:RDF>
      <cc:Work
         rdf:about="">
        <dc:format>image/svg+xml</dc:format>
        <dc:type
           rdf:resource="http://purl.org/dc/dcmitype/StillImage" />
        <dc:title></dc:title>
      </cc:Work>
    </rdf:RDF>
  </metadata>
  <g
     inkscape:label="Layer 1"
     inkscape:groupmode="layer"
     id="layer1">
    <g
       id="g3139"
       transform="translate(179,-52)">
      <g
         transform="translate(0.50292063,0.20997443)"
         id="g3133">
        <path
           style="fill:none;stroke:#000000;stroke-width:1px;stroke-linecap:butt;stroke-linejoin:miter;stroke-opacity:1"
           d="M 99.497079,567.15221 105,572.36218 l 10,35 5,80 5,130 0,75 -5,65 -10,40 -10.502921,5.79002 z"
           id="path3079"
           inkscape:connector-curvature="0"
           sodipodi:nodetypes="cccccccccc" />
        <path
           style="fill:none;stroke:#000000;stroke-width:1px;stroke-linecap:butt;stroke-linejoin:miter;stroke-opacity:1"
           d="m 145,827.36218 5,-5 0,-55 -5,-50 0,-20 5,5 10,70 0,85 5,20 5,30 0,30 -5,5 -15,-40 -5,-30 z"
           id="path3081"
           inkscape:connector-curvature="0"
           sodipodi:nodetypes="ccccccccccccccc" />
        <path
           style="fill:none;stroke:#000000;stroke-width:1px;stroke-linecap:butt;stroke-linejoin:miter;stroke-opacity:1"
           d="M 125.25892,817.50172 130,822.2428 l 15,5.11938 0,45 -5,-10 -5,-5 -5,5 -5,15 z"
           id="path3083"
           inkscape:connector-curvature="0" />
        <path
           style="fill:none;stroke:#000000;stroke-width:1px;stroke-linecap:butt;stroke-linejoin:miter;stroke-opacity:1"
           d="m 170,907.36218 50,45 5,15 -5,5 -45,-25 -5,-10 z"
           id="path3085"
           inkscape:connector-curvature="0" />
      </g>
      <g
         transform="translate(-442.12501,121.93719)"
         id="g3127">
        <path
           style="fill:none;stroke:#000000;stroke-width:1px;stroke-linecap:butt;stroke-linejoin:miter;stroke-opacity:1"
           d="m 542.12501,445.42499 -5.48778,5.21126 -10,35 -5,80 -5,130 0,75 5,65.00002 10,40 10.48778,5.78872 z"
           id="path3079-9"
           inkscape:connector-curvature="0"
           sodipodi:nodetypes="cccccccccc" />
        <path
           style="fill:none;stroke:#000000;stroke-width:1px;stroke-linecap:butt;stroke-linejoin:miter;stroke-opacity:1"
           d="m 496.63723,705.63625 -5,-5 0,-55 5,-50 0,-20 -5,5 -10,70 0,85 -5,20 -5,30 0,30 5,5 15,-40 5,-30 z"
           id="path3081-4"
           inkscape:connector-curvature="0"
           sodipodi:nodetypes="ccccccccccccccc" />
        <path
           style="fill:none;stroke:#000000;stroke-width:1px;stroke-linecap:butt;stroke-linejoin:miter;stroke-opacity:1"
           d="m 516.37831,695.77579 -4.74108,4.74108 -15,5.11938 0,45 5,-10 5,-5 5,5 5,15 z"
           id="path3083-8"
           inkscape:connector-curvature="0" />
        <path
           style="fill:none;stroke:#000000;stroke-width:1px;stroke-linecap:butt;stroke-linejoin:miter;stroke-opacity:1"
           d="m 471.63723,785.63625 -50,45.00002 -5,15 5,5 45,-25.00002 5,-10 z"
           id="path3085-8"
           inkscape:connector-curvature="0" />
      </g>
    </g>
  </g>
</svg>
