<?xml version="1.0" encoding="UTF-8" standalone="no"?>
<!-- Created with Inkscape (http://www.inkscape.org/) -->

<svg
   xmlns:dc="http://purl.org/dc/elements/1.1/"
   xmlns:cc="http://creativecommons.org/ns#"
   xmlns:rdf="http://www.w3.org/1999/02/22-rdf-syntax-ns#"
   xmlns:svg="http://www.w3.org/2000/svg"
   xmlns="http://www.w3.org/2000/svg"
   xmlns:xlink="http://www.w3.org/1999/xlink"
   xmlns:sodipodi="http://sodipodi.sourceforge.net/DTD/sodipodi-0.dtd"
   xmlns:inkscape="http://www.inkscape.org/namespaces/inkscape"
   width="190.02907"
   height="190.06032"
   id="svg4096"
   version="1.1"
   inkscape:version="0.48.4 r9939"
   sodipodi:docname="heavy_blaster_shell.svg"
   inkscape:export-filename="D:\GitHub\Arkadium-Test\Drawings\heavy_blaster_shell.png"
   inkscape:export-xdpi="7.5777879"
   inkscape:export-ydpi="7.5777879">
  <defs
     id="defs4098">
    <linearGradient
       id="linearGradient4656">
      <stop
         style="stop-color:#a8f0ff;stop-opacity:1;"
         offset="0"
         id="stop4658" />
      <stop
         id="stop4664"
         offset="0.67532176"
         style="stop-color:#42b4ff;stop-opacity:1;" />
      <stop
         style="stop-color:#007eff;stop-opacity:1;"
         offset="1"
         id="stop4660" />
    </linearGradient>
    <radialGradient
       inkscape:collect="always"
       xlink:href="#linearGradient4656"
       id="radialGradient4662"
       cx="90"
       cy="932.36218"
       fx="90"
       fy="932.36218"
       r="81.442657"
       gradientUnits="userSpaceOnUse" />
    <filter
       inkscape:collect="always"
       id="filter4702"
       color-interpolation-filters="sRGB">
      <feGaussianBlur
         inkscape:collect="always"
         stdDeviation="5.6568805"
         id="feGaussianBlur4704" />
    </filter>
  </defs>
  <sodipodi:namedview
     id="base"
     pagecolor="#ffffff"
     bordercolor="#666666"
     borderopacity="1.0"
     inkscape:pageopacity="0.0"
     inkscape:pageshadow="2"
     inkscape:zoom="2.8"
     inkscape:cx="149.66342"
     inkscape:cy="66.027768"
     inkscape:document-units="px"
     inkscape:current-layer="layer1"
     showgrid="true"
     showguides="true"
     inkscape:guide-bbox="true"
     inkscape:window-width="1440"
     inkscape:window-height="838"
     inkscape:window-x="-8"
     inkscape:window-y="-8"
     inkscape:window-maximized="1"
     fit-margin-top="0"
     fit-margin-left="0"
     fit-margin-right="0"
     fit-margin-bottom="0">
    <inkscape:grid
       type="xygrid"
       id="grid4110"
       empspacing="5"
       visible="true"
       enabled="true"
       snapvisiblegridlinesonly="true"
       originx="5.014533px"
       originy="-24.97265px" />
    <sodipodi:guide
       orientation="1,0"
       position="145.01453,75.02735"
       id="guide4112" />
  </sodipodi:namedview>
  <metadata
     id="metadata4101">
    <rdf:RDF>
      <cc:Work
         rdf:about="">
        <dc:format>image/svg+xml</dc:format>
        <dc:type
           rdf:resource="http://purl.org/dc/dcmitype/StillImage" />
        <dc:title></dc:title>
      </cc:Work>
    </rdf:RDF>
  </metadata>
  <g
     inkscape:label="Layer 1"
     inkscape:groupmode="layer"
     id="layer1"
     transform="translate(5.014533,-837.32922)">
    <path
       sodipodi:type="star"
       style="fill:url(#radialGradient4662);fill-opacity:1;fill-rule:nonzero;stroke:#000000;stroke-width:0.25;stroke-miterlimit:4;stroke-opacity:0;stroke-dasharray:none;filter:url(#filter4702)"
       id="path4654"
       sodipodi:sides="20"
       sodipodi:cx="90"
       sodipodi:cy="932.36218"
       sodipodi:r1="60.231636"
       sodipodi:r2="81.394104"
       sodipodi:arg1="0.74194727"
       sodipodi:arg2="0.8990269"
       inkscape:flatsided="false"
       inkscape:rounded="0.1"
       inkscape:randomized="0"
       d="m 134.4,973.06218 c -1.61124,1.75772 8.12378,21.52491 6.25741,23.00893 -1.86637,1.48402 -18.93195,-12.45436 -21.00749,-11.28057 -2.07555,1.17378 1.07461,22.98176 -1.15901,23.81646 -2.23361,0.8346 -14.15674,-17.69512 -16.49342,-17.22016 -2.336675,0.47496 -6.079745,22.18906 -8.461956,22.29266 -2.382211,0.1035 -7.995776,-21.20374 -10.364861,-21.4741 -2.369085,-0.27036 -12.638978,19.2243 -14.936602,18.5867 -2.297624,-0.6377 -1.052129,-22.6368 -3.221717,-23.62602 -2.169587,-0.98921 -17.961016,14.37772 -19.949145,13.06132 -1.988129,-1.31646 5.994507,-21.85398 4.236791,-23.46522 -1.757716,-1.61124 -21.524905,8.12378 -23.008927,6.25741 -1.484023,-1.86637 12.454359,-18.93195 11.280572,-21.00749 -1.173786,-2.07554 -22.981786,1.07461 -23.816435,-1.159 -0.834649,-2.23361 17.695092,-14.15674 17.220133,-16.49342 C 30.500384,942.023 8.7862935,938.27993 8.6827191,935.89772 8.5791447,933.51551 29.886425,927.90194 30.156786,925.53286 30.427147,923.16377 10.932491,912.89388 11.57013,910.59625 c 0.637639,-2.29762 22.636753,-1.05213 23.625969,-3.22171 0.989216,-2.16959 -14.377731,-17.96102 -13.061296,-19.94915 1.316435,-1.98813 21.853958,5.99451 23.465197,4.23679 1.61124,-1.75771 -8.123776,-21.5249 -6.257406,-23.00892 1.86637,-1.48403 18.931944,12.45435 21.007489,11.28057 2.075544,-1.17379 -1.074609,-22.98179 1.159003,-23.81644 2.233611,-0.83465 14.15674,17.6951 16.493419,17.22014 2.33668,-0.47496 6.07975,-22.18905 8.461961,-22.29263 2.382211,-0.10357 7.995776,21.20371 10.364861,21.47407 2.369085,0.27036 12.638983,-19.2243 14.936603,-18.58666 2.29762,0.63764 1.05213,22.63676 3.22172,23.62597 2.16958,0.98922 17.96101,-14.37773 19.94914,-13.06129 1.98813,1.31643 -5.99451,21.85395 -4.23679,23.46519 1.75772,1.61124 21.52491,-8.12377 23.00893,-6.2574 1.48402,1.86637 -12.45436,18.93194 -11.28058,21.00749 1.17379,2.07554 22.98179,-1.07461 23.81644,1.159 0.83465,2.23361 -17.69509,14.15674 -17.22013,16.49342 0.47496,2.33668 22.18905,6.07975 22.29262,8.46196 0.10358,2.38221 -21.20371,7.99577 -21.47407,10.36486 -0.27036,2.36908 19.2243,12.63898 18.58666,14.9366 -0.63764,2.29763 -22.63675,1.05213 -23.62597,3.22172 -0.98922,2.16959 14.37773,17.96101 13.0613,19.94914 -1.31644,1.98813 -21.85396,-5.9945 -23.4652,-4.23679 z"
       inkscape:transform-center-x="5.0100402"
       inkscape:transform-center-y="-2.8518621"
       inkscape:export-xdpi="4.7361174"
       inkscape:export-ydpi="4.7361174" />
  </g>
</svg>
