<?xml version="1.0" encoding="UTF-8" standalone="no"?>
<!-- Created with Inkscape (http://www.inkscape.org/) -->

<svg
   xmlns:dc="http://purl.org/dc/elements/1.1/"
   xmlns:cc="http://creativecommons.org/ns#"
   xmlns:rdf="http://www.w3.org/1999/02/22-rdf-syntax-ns#"
   xmlns:svg="http://www.w3.org/2000/svg"
   xmlns="http://www.w3.org/2000/svg"
   xmlns:xlink="http://www.w3.org/1999/xlink"
   xmlns:sodipodi="http://sodipodi.sourceforge.net/DTD/sodipodi-0.dtd"
   xmlns:inkscape="http://www.inkscape.org/namespaces/inkscape"
   width="800"
   height="800"
   id="svg2"
   version="1.1"
   inkscape:version="0.48.4 r9939"
   sodipodi:docname="meteor.svg"
   inkscape:export-filename="D:\GitHub\Arkadium-Test\Drawings\meteor.png"
   inkscape:export-xdpi="0.56189835"
   inkscape:export-ydpi="0.56189835">
  <defs
     id="defs4">
    <linearGradient
       id="linearGradient3755">
      <stop
         style="stop-color:#000000;stop-opacity:1;"
         offset="0"
         id="stop3757" />
      <stop
         id="stop3765"
         offset="0.56049603"
         style="stop-color:#000000;stop-opacity:1;" />
      <stop
         id="stop3763"
         offset="0.98428571"
         style="stop-color:#000000;stop-opacity:0;" />
      <stop
         style="stop-color:#000000;stop-opacity:0;"
         offset="1"
         id="stop3759" />
    </linearGradient>
    <radialGradient
       inkscape:collect="always"
       xlink:href="#linearGradient3755"
       id="radialGradient3761"
       cx="400"
       cy="652.3622"
       fx="400"
       fy="652.3622"
       r="400"
       gradientUnits="userSpaceOnUse"
       gradientTransform="matrix(1.5,0,0,1.5000001,-199.99999,-326.1812)" />
  </defs>
  <sodipodi:namedview
     id="base"
     pagecolor="#ffffff"
     bordercolor="#666666"
     borderopacity="1.0"
     inkscape:pageopacity="0.0"
     inkscape:pageshadow="2"
     inkscape:zoom="0.24748737"
     inkscape:cx="22.892357"
     inkscape:cy="788.37555"
     inkscape:document-units="px"
     inkscape:current-layer="layer1"
     showgrid="false"
     inkscape:window-width="1440"
     inkscape:window-height="838"
     inkscape:window-x="-8"
     inkscape:window-y="-8"
     inkscape:window-maximized="1" />
  <metadata
     id="metadata7">
    <rdf:RDF>
      <cc:Work
         rdf:about="">
        <dc:format>image/svg+xml</dc:format>
        <dc:type
           rdf:resource="http://purl.org/dc/dcmitype/StillImage" />
        <dc:title></dc:title>
      </cc:Work>
    </rdf:RDF>
  </metadata>
  <g
     inkscape:label="Layer 1"
     inkscape:groupmode="layer"
     id="layer1"
     transform="translate(0,-252.36218)">
    <rect
       style="fill:#ff0000;fill-opacity:1;fill-rule:nonzero;stroke:#000000;stroke-width:1.03498578000000000;stroke-opacity:0"
       id="rect3771"
       width="798.96503"
       height="798.96503"
       x="0.51749289"
       y="252.87968"
       inkscape:export-xdpi="5.625"
       inkscape:export-ydpi="5.625" />
    <path
       style="fill:#ff0000;fill-opacity:1;fill-rule:nonzero;stroke:#000000;stroke-width:2.85714293;stroke-opacity:0"
       d="m 2.4285714,399.14286 0,-398.57143143 397.1428586,0 397.14286,0 0,398.57143143 0,398.57143 -397.14286,0 -397.1428586,0 0,-398.57143 z"
       id="path3773"
       inkscape:connector-curvature="0"
       transform="translate(0,252.36218)" />
    <path
       style="fill:#ff0000;fill-opacity:1;fill-rule:nonzero;stroke:#000000;stroke-width:2.85714293;stroke-opacity:0"
       d="m 2.4285714,399.14286 0,-398.57143143 397.1428586,0 397.14286,0 0,398.57143143 0,398.57143 -397.14286,0 -397.1428586,0 0,-398.57143 z"
       id="path3775"
       inkscape:connector-curvature="0"
       transform="translate(0,252.36218)" />
    <path
       style="fill:#ffffff;fill-opacity:1;fill-rule:nonzero;stroke:#000000;stroke-width:2.85714293000000020;stroke-opacity:0"
       d="m 2.4285714,399.14286 0,-398.57143143 397.1428586,0 397.14286,0 0,398.57143143 0,398.57143 -397.14286,0 -397.1428586,0 0,-398.57143 z"
       id="path3777"
       inkscape:connector-curvature="0"
       transform="translate(0,252.36218)" />
    <path
       style="fill:#ffffff;fill-opacity:1;fill-rule:nonzero;stroke:#000000;stroke-width:2.85714293;stroke-opacity:0"
       d="m 2.4285714,399.14286 0,-398.57143143 397.1428586,0 397.14286,0 0,398.57143143 0,398.57143 -397.14286,0 -397.1428586,0 0,-398.57143 z"
       id="path3779"
       inkscape:connector-curvature="0"
       transform="translate(0,252.36218)" />
    <path
       style="fill:#ffffff;fill-opacity:1;fill-rule:nonzero;stroke:#000000;stroke-width:2.85714293;stroke-opacity:0"
       d="m 2.4285714,399.14286 0,-398.57143143 397.1428586,0 397.14286,0 0,398.57143143 0,398.57143 -397.14286,0 -397.1428586,0 0,-398.57143 z"
       id="path3781"
       inkscape:connector-curvature="0"
       transform="translate(0,252.36218)" />
    <path
       style="fill:#ffffff;fill-opacity:1;fill-rule:nonzero;stroke:#000000;stroke-width:2.85714293;stroke-opacity:0"
       d="m 2.4285714,399.14286 0,-398.57143143 397.1428586,0 397.14286,0 0,398.57143143 0,398.57143 -397.14286,0 -397.1428586,0 0,-398.57143 z"
       id="path3783"
       inkscape:connector-curvature="0"
       transform="translate(0,252.36218)" />
    <path
       style="fill:#ffffff;fill-opacity:1;fill-rule:nonzero;stroke:#000000;stroke-width:2.85714293;stroke-opacity:0"
       d="m 2.4285714,399.14286 0,-398.57143143 397.1428586,0 397.14286,0 0,398.57143143 0,398.57143 -397.14286,0 -397.1428586,0 0,-398.57143 z"
       id="path3785"
       inkscape:connector-curvature="0"
       transform="translate(0,252.36218)" />
    <path
       style="fill:#ffffff;fill-opacity:1;fill-rule:nonzero;stroke:#000000;stroke-width:2.85714293;stroke-opacity:0"
       d="m 2.4285714,399.14286 0,-398.57143143 397.1428586,0 397.14286,0 0,398.57143143 0,398.57143 -397.14286,0 -397.1428586,0 0,-398.57143 z"
       id="path3787"
       inkscape:connector-curvature="0"
       transform="translate(0,252.36218)" />
    <path
       style="fill:#ffffff;fill-opacity:1;fill-rule:nonzero;stroke:#000000;stroke-width:2.85714293;stroke-opacity:0"
       d="m 2.4285714,399.14286 0,-398.57143143 397.1428586,0 397.14286,0 0,398.57143143 0,398.57143 -397.14286,0 -397.1428586,0 0,-398.57143 z"
       id="path3789"
       inkscape:connector-curvature="0"
       transform="translate(0,252.36218)" />
    <path
       style="fill:#ffffff;fill-opacity:1;fill-rule:nonzero;stroke:#000000;stroke-width:2.85714293;stroke-opacity:0"
       d="m 2.4285714,399.14286 0,-398.57143143 397.1428586,0 397.14286,0 0,398.57143143 0,398.57143 -397.14286,0 -397.1428586,0 0,-398.57143 z"
       id="path3791"
       inkscape:connector-curvature="0"
       transform="translate(0,252.36218)" />
    <path
       style="fill:#ffffff;fill-opacity:1;fill-rule:nonzero;stroke:#000000;stroke-width:2.85714293;stroke-opacity:0"
       d="m 2.4285714,399.14286 0,-398.57143143 397.1428586,0 397.14286,0 0,398.57143143 0,398.57143 -397.14286,0 -397.1428586,0 0,-398.57143 z"
       id="path3793"
       inkscape:connector-curvature="0"
       transform="translate(0,252.36218)" />
    <path
       style="fill:#ffffff;fill-opacity:0;fill-rule:nonzero;stroke:#000000;stroke-width:2.85714293000000020;stroke-opacity:0"
       d="m 2.4285714,399.14286 0,-398.57143143 397.1428586,0 397.14286,0 0,398.57143143 0,398.57143 -397.14286,0 -397.1428586,0 0,-398.57143 z"
       id="path3795"
       inkscape:connector-curvature="0"
       transform="translate(0,252.36218)" />
    <path
       style="fill:#ffffff;fill-opacity:0;fill-rule:nonzero;stroke:#000000;stroke-width:2.85714293;stroke-opacity:0"
       d="m 2.4285714,399.14286 0,-398.57143143 397.1428586,0 397.14286,0 0,398.57143143 0,398.57143 -397.14286,0 -397.1428586,0 0,-398.57143 z"
       id="path3797"
       inkscape:connector-curvature="0"
       transform="translate(0,252.36218)" />
    <path
       style="fill:#000000;fill-opacity:0;fill-rule:nonzero;stroke:#000000;stroke-width:2.85714293000000020;stroke-opacity:0"
       d="m 2.4285714,399.14286 0,-398.57143143 397.1428586,0 397.14286,0 0,398.57143143 0,398.57143 -397.14286,0 -397.1428586,0 0,-398.57143 z"
       id="path3799"
       inkscape:connector-curvature="0"
       transform="translate(0,252.36218)" />
    <path
       style="fill:#000000;fill-opacity:0;fill-rule:nonzero;stroke:#000000;stroke-width:2.85714293;stroke-opacity:0"
       d="m 2.4285714,399.14286 0,-398.57143143 397.1428586,0 397.14286,0 0,398.57143143 0,398.57143 -397.14286,0 -397.1428586,0 0,-398.57143 z"
       id="path3801"
       inkscape:connector-curvature="0"
       transform="translate(0,252.36218)" />
    <path
       style="fill:#000000;fill-opacity:1;fill-rule:nonzero;stroke:#000000;stroke-width:2.85714293000000020;stroke-opacity:0"
       d="m 2.4285714,399.14286 0,-398.57143143 397.1428586,0 397.14286,0 0,398.57143143 0,398.57143 -397.14286,0 -397.1428586,0 0,-398.57143 z"
       id="path3803"
       inkscape:connector-curvature="0"
       transform="translate(0,252.36218)" />
    <path
       style="fill:#ffffff;fill-opacity:1;fill-rule:nonzero;stroke:#000000;stroke-width:2.85714293000000020;stroke-opacity:0"
       d="m 2.4285714,399.14286 0,-398.57143143 397.1428586,0 397.14286,0 0,398.57143143 0,398.57143 -397.14286,0 -397.1428586,0 0,-398.57143 z"
       id="path3805"
       inkscape:connector-curvature="0"
       transform="translate(0,252.36218)" />
    <path
       style="fill:#ffffff;fill-opacity:1;fill-rule:nonzero;stroke:#000000;stroke-width:0.17857143;stroke-opacity:0"
       d="m 796.84007,377.59855 0,-91.51786 1.25,0 1.25,0 0,91.51786 0,91.51786 -1.25,0 -1.25,0 0,-91.51786 z"
       id="path3807"
       inkscape:connector-curvature="0"
       transform="translate(0,252.36218)" />
    <path
       style="fill:#ffffff;fill-opacity:1;fill-rule:nonzero;stroke:#000000;stroke-width:0.03156727;stroke-opacity:0"
       d="m 796.71663,385.52083 c 0,-14.3596 0.005,-16.17822 0.0474,-16.17822 0.042,0 0.0473,1.81862 0.0473,16.17822 0,14.3596 -0.005,16.17822 -0.0473,16.17822 -0.042,0 -0.0474,-1.81862 -0.0474,-16.17822 z"
       id="path3809"
       inkscape:connector-curvature="0"
       transform="translate(0,252.36218)" />
    <path
       style="fill:#ffffff;fill-opacity:1;fill-rule:nonzero;stroke:#000000;stroke-width:0.03156727;stroke-opacity:0"
       d="m 799.47865,385.52083 c 0,-8.9067 0.004,-12.54564 0.008,-8.08653 0.004,4.45912 0.004,11.74642 0,16.19401 -0.004,4.44759 -0.008,0.79922 -0.008,-8.10748 z"
       id="path3811"
       inkscape:connector-curvature="0"
       transform="translate(0,252.36218)" />
  </g>
</svg>
