<?xml version="1.0" encoding="UTF-8" standalone="no"?>
<!-- Created with Inkscape (http://www.inkscape.org/) -->

<svg
   xmlns:dc="http://purl.org/dc/elements/1.1/"
   xmlns:cc="http://creativecommons.org/ns#"
   xmlns:rdf="http://www.w3.org/1999/02/22-rdf-syntax-ns#"
   xmlns:svg="http://www.w3.org/2000/svg"
   xmlns="http://www.w3.org/2000/svg"
   xmlns:sodipodi="http://sodipodi.sourceforge.net/DTD/sodipodi-0.dtd"
   xmlns:inkscape="http://www.inkscape.org/namespaces/inkscape"
   width="249"
   height="351.00003"
   id="svg2"
   version="1.1"
   inkscape:version="0.48.2 r9819"
   sodipodi:docname="SpaceShip_v2.svg">
  <defs
     id="defs4">
    <filter
       id="filter4058"
       inkscape:label="ImageFilter"
       color-interpolation-filters="sRGB">
      <feDisplacementMap
         id="feDisplacementMap4072"
         in="StrokePaint"
         result="result1"
         in2="BackgroundImage"
         scale="0"
         xChannelSelector="A"
         yChannelSelector="A" />
      <feTurbulence
         id="feTurbulence4076" />
    </filter>
  </defs>
  <sodipodi:namedview
     id="base"
     pagecolor="#ffffff"
     bordercolor="#666666"
     borderopacity="1.0"
     inkscape:pageopacity="0"
     inkscape:pageshadow="2"
     inkscape:zoom="1"
     inkscape:cx="298.62088"
     inkscape:cy="214.27189"
     inkscape:document-units="px"
     inkscape:current-layer="layer1"
     showgrid="true"
     guidetolerance="20"
     showguides="true"
     inkscape:guide-bbox="true"
     inkscape:window-width="1374"
     inkscape:window-height="878"
     inkscape:window-x="-8"
     inkscape:window-y="-8"
     inkscape:window-maximized="1"
     fit-margin-top="0"
     fit-margin-left="0"
     fit-margin-right="0"
     fit-margin-bottom="0">
    <inkscape:grid
       type="xygrid"
       id="grid2985"
       empspacing="5"
       visible="true"
       enabled="true"
       snapvisiblegridlinesonly="false" />
    <sodipodi:guide
       orientation="1,0"
       position="124.5,155.50002"
       id="guide2987" />
  </sodipodi:namedview>
  <metadata
     id="metadata7">
    <rdf:RDF>
      <cc:Work
         rdf:about="">
        <dc:format>image/svg+xml</dc:format>
        <dc:type
           rdf:resource="http://purl.org/dc/dcmitype/StillImage" />
        <dc:title></dc:title>
      </cc:Work>
    </rdf:RDF>
  </metadata>
  <g
     inkscape:label="Layer 1"
     inkscape:groupmode="layer"
     id="layer1"
     transform="translate(-125.5,-671.86218)">
    <path
       style="fill:#2a7fff;stroke:#000000;stroke-width:1px;stroke-linecap:butt;stroke-linejoin:miter;stroke-opacity:1"
       d="m 250,687.36218 -15,-5 -3,40 13,20 5,-3 z"
       id="path2997"
       inkscape:connector-curvature="0" />
    <path
       style="fill:#162d50;stroke:#000000;stroke-width:1px;stroke-linecap:butt;stroke-linejoin:miter;stroke-opacity:1"
       d="m 245,742.36218 -5,35 10,-3 0,-35 z"
       id="path2999"
       inkscape:connector-curvature="0" />
    <path
       style="fill:#e9ddaf;stroke:#000000;stroke-width:1px;stroke-linecap:butt;stroke-linejoin:miter;stroke-opacity:1"
       d="m 240,777.36218 -5,35 -5,8 -5,35 5,4 0,-4 12,-18 8,-3 0,-60 z"
       id="path3001"
       inkscape:connector-curvature="0" />
    <path
       style="fill:#decd87;stroke:#000000;stroke-width:1px;stroke-linecap:butt;stroke-linejoin:miter;stroke-opacity:1"
       d="m 250,834.36218 -8,3 -12,18 0,4 5,28 10,10 5,2 z"
       id="path3003"
       inkscape:connector-curvature="0" />
    <path
       style="fill:#2a7fff;stroke:#000000;stroke-width:1px;stroke-linecap:butt;stroke-linejoin:miter;stroke-opacity:1"
       d="m 250,899.36218 0,63.00002 -30,-10.00002 5,-80 -10,-40 17,-110 13,20 -10,70 -5,8 -5,35 5,4 5,28 10,10 z"
       id="path3007"
       inkscape:connector-curvature="0" />
    <path
       style="fill:#162d50;stroke:#000000;stroke-width:1px;stroke-linecap:butt;stroke-linejoin:miter;stroke-opacity:1"
       d="m 215,832.36218 -26,30 16,85 15,5 5,-80 z"
       id="path3009"
       inkscape:connector-curvature="0"
       sodipodi:nodetypes="cccccc" />
    <path
       style="fill:#002255;stroke:#000000;stroke-width:1px;stroke-linecap:butt;stroke-linejoin:miter;stroke-opacity:1"
       d="m 250,957.36218 -5,0 0,3.00002 0,22 2,39 3,1 z"
       id="path3013"
       inkscape:connector-curvature="0"
       sodipodi:nodetypes="ccccccc" />
    <path
       style="fill:#53676c;stroke:#000000;stroke-width:1px;stroke-linecap:butt;stroke-linejoin:miter;stroke-opacity:1"
       d="m 235,682.36218 -1,-8 -2,-2 -57,25 -25,121 74,-46 8,-50 z"
       id="path3015"
       inkscape:connector-curvature="0"
       sodipodi:nodetypes="cccccccc" />
    <path
       style="fill:#53676c;stroke:#000000;stroke-width:1px;stroke-linecap:butt;stroke-linejoin:miter;stroke-opacity:1"
       d="m 189,862.36218 -63,45 19,-84 5,-5 74,-46 -9,60 z"
       id="path3017"
       inkscape:connector-curvature="0"
       sodipodi:nodetypes="ccccccc" />
    <path
       style="fill:#6f8a91;stroke:#000000;stroke-width:1px;stroke-linecap:butt;stroke-linejoin:miter;stroke-opacity:1"
       d="m 126,907.36218 19,60.00002 50,24 10,-24 0,-20.00002 -16,-85 z"
       id="path3021"
       inkscape:connector-curvature="0"
       sodipodi:nodetypes="ccccccc" />
    <path
       style="fill:#1c1f24;stroke:#000000;stroke-width:1px;stroke-linecap:butt;stroke-linejoin:miter;stroke-opacity:1"
       d="m 205,947.36218 0,20.00002 40,15 0,-22 z"
       id="path3028"
       inkscape:connector-curvature="0" />
    <path
       style="fill:none;stroke:#000000;stroke-width:1px;stroke-linecap:butt;stroke-linejoin:miter;stroke-opacity:1"
       d="m 215,950.36218 0,21.00002"
       id="path3030"
       inkscape:connector-curvature="0" />
    <path
       style="fill:none;stroke:#000000;stroke-width:1px;stroke-linecap:butt;stroke-linejoin:miter;stroke-opacity:1"
       d="m 225,954.36218 0,21.00002"
       id="path3034"
       inkscape:connector-curvature="0" />
    <path
       style="fill:none;stroke:#000000;stroke-width:1px;stroke-linecap:butt;stroke-linejoin:miter;stroke-opacity:1"
       d="m 235,957.36218 0,21.00002"
       id="path3036"
       inkscape:connector-curvature="0" />
    <path
       style="fill:none;stroke:#000000;stroke-width:1px;stroke-linecap:butt;stroke-linejoin:miter;stroke-opacity:1"
       d="m 235,887.36218 -5,10 10,35 5,25"
       id="path3128"
       inkscape:connector-curvature="0"
       sodipodi:nodetypes="cccc" />
    <path
       style="fill:#2a7fff;stroke:#000000;stroke-width:1px;stroke-linecap:butt;stroke-linejoin:miter;stroke-opacity:1"
       d="m 250,687.36218 15,-5 3,40 -13,20 -5,-3 z"
       id="path2997-8"
       inkscape:connector-curvature="0" />
    <path
       style="fill:#162d50;stroke:#000000;stroke-width:1px;stroke-linecap:butt;stroke-linejoin:miter;stroke-opacity:1"
       d="m 255,742.36218 5,35 -10,-3 0,-35 z"
       id="path2999-5"
       inkscape:connector-curvature="0" />
    <path
       style="fill:#e9ddaf;stroke:#000000;stroke-width:1px;stroke-linecap:butt;stroke-linejoin:miter;stroke-opacity:1"
       d="m 260,777.36218 5,35 5,8 5,35 -5,4 0,-4 -12,-18 -8,-3 0,-60 z"
       id="path3001-7"
       inkscape:connector-curvature="0" />
    <path
       style="fill:#decd87;stroke:#000000;stroke-width:1px;stroke-linecap:butt;stroke-linejoin:miter;stroke-opacity:1"
       d="m 250,834.36218 8,3 12,18 0,4 -5,28 -10,10 -5,2 z"
       id="path3003-6"
       inkscape:connector-curvature="0" />
    <path
       style="fill:#2a7fff;stroke:#000000;stroke-width:1px;stroke-linecap:butt;stroke-linejoin:miter;stroke-opacity:1"
       d="m 250,899.36218 0,63.00002 30,-10.00002 -5,-80 10,-40 -17,-110 -13,20 10,70 5,8 5,35 -5,4 -5,28 -10,10 z"
       id="path3007-1"
       inkscape:connector-curvature="0" />
    <path
       style="fill:#162d50;stroke:#000000;stroke-width:1px;stroke-linecap:butt;stroke-linejoin:miter;stroke-opacity:1"
       d="m 285,832.36218 26,30 -16,85 -15,5 -5,-80 z"
       id="path3009-8"
       inkscape:connector-curvature="0"
       sodipodi:nodetypes="cccccc" />
    <path
       style="fill:#002255;stroke:#000000;stroke-width:1px;stroke-linecap:butt;stroke-linejoin:miter;stroke-opacity:1"
       d="m 250,957.36218 5,0 0,3.00002 0,22 -2,39 -3,1 z"
       id="path3013-9"
       inkscape:connector-curvature="0"
       sodipodi:nodetypes="ccccccc" />
    <path
       style="fill:#53676c;stroke:#000000;stroke-width:1px;stroke-linecap:butt;stroke-linejoin:miter;stroke-opacity:1"
       d="m 265,682.36218 1,-8 2,-2 57,25 25,121 -74,-46 -8,-50 z"
       id="path3015-2"
       inkscape:connector-curvature="0"
       sodipodi:nodetypes="ccccc" />
    <path
       style="fill:#53676c;stroke:#000000;stroke-width:1px;stroke-linecap:butt;stroke-linejoin:miter;stroke-opacity:1"
       d="m 311,862.36218 63,45 -19,-84 -5,-5 -74,-46 9,60 z"
       id="path3017-7"
       inkscape:connector-curvature="0"
       sodipodi:nodetypes="ccccccc" />
    <path
       style="fill:#6f8a91;stroke:#000000;stroke-width:1px;stroke-linecap:butt;stroke-linejoin:miter;stroke-opacity:1"
       d="m 374,907.36218 -19,60.00002 -50,24 -10,-24 0,-20.00002 16,-85 z"
       id="path3021-9"
       inkscape:connector-curvature="0"
       sodipodi:nodetypes="ccccccc" />
    <path
       style="fill:#1c1f24;stroke:#000000;stroke-width:1px;stroke-linecap:butt;stroke-linejoin:miter;stroke-opacity:1"
       d="m 295,947.36218 0,20.00002 -40,15 0,-22 z"
       id="path3028-5"
       inkscape:connector-curvature="0" />
    <path
       style="fill:none;stroke:#000000;stroke-width:1px;stroke-linecap:butt;stroke-linejoin:miter;stroke-opacity:1"
       d="m 285,950.36218 0,21.00002"
       id="path3030-4"
       inkscape:connector-curvature="0" />
    <path
       style="fill:none;stroke:#000000;stroke-width:1px;stroke-linecap:butt;stroke-linejoin:miter;stroke-opacity:1"
       d="m 275,954.36218 0,21.00002"
       id="path3034-3"
       inkscape:connector-curvature="0" />
    <path
       style="fill:none;stroke:#000000;stroke-width:1px;stroke-linecap:butt;stroke-linejoin:miter;stroke-opacity:1"
       d="m 265,957.36218 0,21.00002"
       id="path3036-1"
       inkscape:connector-curvature="0" />
    <path
       style="fill:none;stroke:#000000;stroke-width:1px;stroke-linecap:butt;stroke-linejoin:miter;stroke-opacity:1"
       d="m 265,887.36218 5,10 -10,35 -5,25"
       id="path3128-2"
       inkscape:connector-curvature="0"
       sodipodi:nodetypes="cccc" />
  </g>
</svg>
